<?xml version="1.0" encoding="UTF-8"?>
<svg width="148px" height="43px" viewBox="0 0 148 43" version="1.1" xmlns="http://www.w3.org/2000/svg" xmlns:xlink="http://www.w3.org/1999/xlink">
    <!-- Generator: Sketch 63.1 (92452) - https://sketch.com -->
    <title>Group</title>
    <desc>Created with Sketch.</desc>
    <g id="Page-1" stroke="none" stroke-width="1" fill="none" fill-rule="evenodd">
        <g id="iPhone-11-Pro" transform="translate(-20.000000, -278.000000)" fill="#15202b" fill-rule="nonzero">
            <g id="Group" transform="translate(20.000000, 278.000000)">
                <path d="M143.2,43 L4.7,43 C2.1,43 0,40.9 0,38.3 L0,4.7 C0,2.1 2.1,0 4.7,0 L143.2,0 C145.8,0 147.9,2.1 147.9,4.7 L147.9,38.3 C147.9,40.9 145.8,43 143.2,43 Z M4.6,1 C2.5,1 0.9,2.7 0.9,4.7 L0.9,38.3 C0.9,40.3 2.6,42 4.6,42 L143.1,42 C145.2,42 146.8,40.3 146.8,38.3 L146.8,4.7 C146.8,2.6 145.1,1 143.1,1 L4.6,1 Z" id="Shape"></path>
                <path d="M36,15.9 C34.3,13.5 31.8,13.1 30.9,13.1 C28.7,12.9 26.7,14.4 25.6,14.4 C24.5,14.4 22.8,13.1 21,13.2 C18.7,13.2 16.5,14.6 15.3,16.7 C12.8,21 14.7,27.4 17,30.8 C18.2,32.5 19.6,34.4 21.4,34.3 C23.2,34.2 23.8,33.2 26,33.2 C28.1,33.2 28.8,34.3 30.6,34.3 C32.5,34.3 33.7,32.6 34.9,30.9 C36.3,28.9 36.8,27 36.9,26.9 C36.9,26.9 33.2,25.5 33.2,21.2 C32.9,17.7 35.9,16 36,15.9 Z" id="Path"></path>
                <path d="M29.5,10.8 C30.5,9.6 31.1,8 30.9,6.3 C29.5,6.4 27.8,7.3 26.8,8.4 C25.9,9.4 25.1,11.1 25.3,12.7 C26.9,12.9 28.5,12 29.5,10.8 Z" id="Path"></path>
                <path d="M54.9,29.9 L56.3,34.2 L58.8,34.2 L54.1,19.6 L51.2,19.6 L46.5,34.2 L48.9,34.2 L50.2,29.9 L54.9,29.9 Z M51.8,24.2 C52.1,23 52.3,22.1 52.5,21.4 L52.5,21.4 C52.9,22.8 53.1,23.8 53.2,24.2 L54.4,28 L50.5,28 L51.8,24.2 Z" id="Shape"></path>
                <path d="M63.1,38.5 L63.1,32.9 L63.1,32.9 C63.7,33.9 64.7,34.4 66.1,34.4 C67.4,34.4 68.5,33.9 69.3,33 C70.3,32 70.8,30.5 70.8,28.7 C70.8,27.1 70.4,25.8 69.6,24.8 C68.8,23.8 67.7,23.3 66.5,23.3 C64.9,23.3 63.7,23.9 63,25.2 L63,25.2 L62.9,23.5 L60.8,23.5 C60.9,24.7 60.9,25.8 60.9,27 L60.9,38.5 L63.1,38.5 Z M63.1,28.1 C63.1,27.9 63.1,27.7 63.2,27.4 C63.3,26.8 63.7,26.3 64.1,25.9 C64.6,25.5 65.1,25.3 65.7,25.3 C66.6,25.3 67.2,25.6 67.7,26.3 C68.2,27 68.4,27.8 68.4,28.8 C68.4,29.9 68.2,30.8 67.7,31.5 C67.2,32.2 66.5,32.5 65.6,32.5 C64.9,32.5 64.2,32.2 63.8,31.7 C63.3,31.2 63.1,30.5 63.1,29.8 L63.1,28.1 Z" id="Shape"></path>
                <path d="M75.2,38.5 L75.2,32.9 L75.2,32.9 C75.8,33.9 76.8,34.4 78.2,34.4 C79.5,34.4 80.6,33.9 81.4,33 C82.4,32 82.9,30.5 82.9,28.7 C82.9,27.1 82.5,25.8 81.7,24.8 C80.9,23.8 79.8,23.3 78.6,23.3 C77,23.3 75.8,23.9 75.1,25.2 L75.1,25.2 L75,23.5 L72.9,23.5 C73,24.7 73,25.8 73,27 L73,38.5 L75.2,38.5 Z M75.2,28.1 C75.2,27.9 75.2,27.7 75.3,27.4 C75.4,26.8 75.7,26.3 76.2,25.9 C76.7,25.5 77.2,25.3 77.8,25.3 C78.7,25.3 79.3,25.6 79.8,26.3 C80.3,27 80.5,27.8 80.5,28.8 C80.5,29.9 80.3,30.8 79.8,31.5 C79.3,32.2 78.6,32.5 77.7,32.5 C76.9,32.5 76.3,32.2 75.9,31.7 C75.4,31.2 75.2,30.5 75.2,29.8 L75.2,28.1 Z" id="Shape"></path>
                <path d="M91.3,32.4 C90.1,32.4 88.9,32.1 87.9,31.5 L87.4,33.5 C88.4,34.1 89.6,34.4 91.2,34.4 C92.9,34.4 94.2,34 95.2,33.1 C96.1,32.3 96.5,31.3 96.5,30.1 C96.5,29.1 96.2,28.2 95.6,27.6 C95,26.9 94.1,26.3 92.8,25.8 C91.8,25.4 91.1,25 90.7,24.7 C90.3,24.3 90,23.8 90,23.3 C90,22.8 90.2,22.3 90.6,22 C91.1,21.6 91.7,21.4 92.5,21.4 C93.5,21.4 94.5,21.6 95.3,22.1 L95.9,20.2 C95,19.7 93.9,19.5 92.6,19.5 C91.1,19.5 89.9,19.9 89,20.7 C88.1,21.5 87.7,22.5 87.7,23.7 C87.7,25.5 89,26.9 91.5,27.9 C92.4,28.2 93.1,28.6 93.5,29 C93.9,29.4 94.1,29.9 94.1,30.5 C94.1,31.2 93.9,31.7 93.4,32.1 C92.9,32.2 92.2,32.4 91.3,32.4 Z" id="Path"></path>
                <path d="M99.3,21.7 L99.3,23.6 L97.8,23.6 L97.8,25.4 L99.3,25.4 L99.3,30.7 C99.3,32 99.6,33 100.1,33.5 C100.6,34.1 101.3,34.3 102.3,34.3 C103.1,34.3 103.7,34.2 104.1,34 L104,32.2 C103.7,32.3 103.4,32.3 103,32.3 C102.1,32.3 101.6,31.6 101.6,30.3 L101.6,25.2 L104.2,25.2 L104.2,23.4 L101.6,23.4 L101.6,20.8 L99.3,21.7 Z" id="Path"></path>
                <path d="M114.4,32.8 C115.3,31.8 115.8,30.4 115.8,28.8 C115.8,27.2 115.4,25.9 114.5,24.9 C113.6,23.9 112.3,23.4 110.8,23.4 C109.2,23.4 107.9,23.9 107,25 C106.1,26 105.6,27.4 105.6,29 C105.6,30.6 106.1,31.9 107,32.9 C107.9,33.9 109.1,34.4 110.7,34.4 C112.2,34.4 113.5,33.9 114.4,32.8 Z M108.5,31.4 C108.1,30.7 107.9,29.9 107.9,28.9 C107.9,27.9 108.1,27 108.5,26.4 C109,25.6 109.7,25.1 110.6,25.1 C111.5,25.1 112.2,25.5 112.7,26.4 C113.1,27.1 113.3,27.9 113.3,28.9 C113.3,29.9 113.1,30.7 112.7,31.4 C112.2,32.3 111.5,32.7 110.6,32.7 C109.7,32.7 109,32.3 108.5,31.4 Z" id="Shape"></path>
                <path d="M120.2,34.2 L120.2,28.7 C120.2,27.9 120.4,27.2 120.8,26.6 C121.2,26 121.9,25.7 122.7,25.7 C123,25.7 123.2,25.7 123.4,25.8 L123.4,23.6 C123.2,23.6 123,23.6 122.8,23.6 C122.2,23.6 121.6,23.8 121.1,24.2 C120.6,24.6 120.2,25.2 119.9,25.9 L119.8,25.9 L119.7,23.9 L117.7,23.9 C117.8,24.9 117.8,26 117.8,27.2 L117.8,34.4 L120.2,34.4 L120.2,34.2 Z" id="Path"></path>
                <path d="M133.9,28.4 C133.9,27.1 133.6,26 133,25.1 C132.2,24 131.1,23.4 129.6,23.4 C128.1,23.4 126.8,24 125.9,25.1 C125,26.2 124.6,27.5 124.6,29.1 C124.6,30.7 125.1,32 126,33 C126.9,34 128.2,34.4 129.8,34.4 C131.2,34.4 132.3,34.2 133.3,33.7 L132.9,32.1 C132,32.4 131.1,32.6 130.1,32.6 C129.2,32.6 128.4,32.4 127.8,31.9 C127.1,31.4 126.8,30.6 126.8,29.5 L133.8,29.5 C133.8,29.2 133.9,28.8 133.9,28.4 Z M131.6,27.8 C131.6,27.8 131.6,27.8 131.6,27.8 L126.7,27.8 C126.8,27.1 127,26.5 127.4,26 C127.9,25.4 128.5,25 129.3,25 C130.1,25 130.8,25.3 131.2,26 C131.5,26.5 131.6,27.1 131.6,27.8 L131.6,27.8 L131.6,27.8 Z" id="Shape"></path>
                <path d="M53.7,10.5 C53.7,9.3 53.3,8.5 52.6,7.8 C52,7.3 51,7 49.8,7 C49.1,7 48.4,7.1 47.8,7.1 L47.8,14.2 C48.3,14.3 48.8,14.3 49.5,14.3 C50.8,14.3 51.8,14 52.6,13.4 C53.3,12.8 53.7,11.8 53.7,10.5 Z M51.8,12.7 C51.3,13.2 50.6,13.4 49.8,13.4 C49.4,13.4 49.2,13.4 49,13.4 L49,8 C49.3,7.9 49.6,7.9 49.9,7.9 C50.8,7.9 51.4,8.1 51.8,8.6 C52.2,9 52.5,9.7 52.5,10.5 C52.5,11.5 52.3,12.2 51.8,12.7 Z" id="Shape"></path>
                <path d="M59.5,13.6 C60,13.1 60.2,12.4 60.2,11.6 C60.2,10.8 60,10.2 59.5,9.7 C59,9.2 58.4,8.9 57.7,8.9 C56.9,8.9 56.3,9.2 55.8,9.7 C55.3,10.2 55.1,10.9 55.1,11.7 C55.1,12.5 55.3,13.1 55.8,13.6 C56.3,14.1 56.9,14.4 57.6,14.4 C58.4,14.4 59,14.1 59.5,13.6 Z M56.6,12.9 C56.4,12.6 56.3,12.1 56.3,11.7 C56.3,11.2 56.4,10.8 56.6,10.4 C56.8,10 57.2,9.8 57.7,9.8 C58.1,9.8 58.5,10 58.7,10.4 C58.9,10.7 59,11.2 59,11.6 C59,12 58.9,12.5 58.7,12.8 C58.5,13.2 58.1,13.4 57.7,13.4 C57.2,13.6 56.8,13.4 56.6,12.9 Z" id="Shape"></path>
                <path d="M64.6,12 C64.8,11.5 64.9,10.9 65,10.3 L65,10.3 C65.1,10.9 65.2,11.4 65.4,12 L66.1,14.3 L67.2,14.3 L68.8,9.1 L67.7,9.1 L67.1,11.5 C66.9,12.1 66.8,12.7 66.7,13.2 L66.7,13.2 C66.6,12.7 66.5,12.1 66.3,11.5 L65.6,9.1 L64.7,9.1 L64,11.6 C63.8,12.3 63.7,12.8 63.6,13.3 L63.6,13.3 C63.5,12.8 63.4,12.2 63.2,11.6 L62.6,9.1 L61.4,9.1 L62.9,14.3 L64,14.3 L64.6,12 Z" id="Path"></path>
                <path d="M74.7,14.3 L74.7,11.2 C74.7,10.4 74.5,9.9 74.1,9.5 C73.8,9.2 73.4,9 72.9,9 C72.5,9 72.2,9.1 71.9,9.3 C71.6,9.5 71.4,9.7 71.3,9.9 L71.3,9.9 L71.2,9.1 L70.2,9.1 C70.2,9.6 70.2,10.1 70.2,10.6 L70.2,14.3 L71.3,14.3 L71.3,11.2 C71.3,10.9 71.4,10.6 71.6,10.3 C71.8,10 72.1,9.9 72.4,9.9 C73.1,9.9 73.4,10.4 73.4,11.3 L73.4,14.3 L74.7,14.3 Z" id="Path"></path>
                <rect id="Rectangle" x="76.7" y="6.7" width="1.1" height="7.6"></rect>
                <path d="M84,13.6 C84.5,13.1 84.7,12.4 84.7,11.6 C84.7,10.8 84.5,10.2 84,9.7 C83.5,9.2 82.9,8.9 82.2,8.9 C81.4,8.9 80.8,9.2 80.3,9.7 C79.8,10.2 79.6,10.9 79.6,11.7 C79.6,12.5 79.8,13.1 80.3,13.6 C80.7,14.1 81.4,14.4 82.1,14.4 C82.9,14.4 83.5,14.1 84,13.6 Z M81.1,12.9 C80.9,12.6 80.8,12.1 80.8,11.7 C80.8,11.2 80.9,10.8 81.1,10.4 C81.3,10 81.7,9.8 82.2,9.8 C82.6,9.8 83,10 83.2,10.4 C83.4,10.7 83.5,11.2 83.5,11.6 C83.5,12 83.4,12.5 83.2,12.8 C83,13.2 82.6,13.4 82.2,13.4 C81.7,13.6 81.3,13.4 81.1,12.9 Z" id="Shape"></path>
                <path d="M86.8,11.4 C86.3,11.7 86,12.2 86,12.9 C86,13.3 86.1,13.7 86.4,14 C86.7,14.3 87.1,14.5 87.6,14.5 C88.3,14.5 88.8,14.3 89.1,13.8 L89.1,13.8 L89.2,14.4 L90.2,14.4 C90.2,14.1 90.1,13.7 90.1,13.2 L90.1,11.3 C90.1,9.9 89.4,9.2 88.1,9.2 C87.4,9.2 86.8,9.3 86.3,9.6 L86.5,10.4 C86.9,10.1 87.3,10 87.8,10 C88.5,10 88.9,10.3 88.9,11 L88.9,11.1 C88,10.9 87.3,11.1 86.8,11.4 Z M89,11.7 L89,12.5 C89,12.6 89,12.6 89,12.7 C89,12.9 88.8,13.2 88.6,13.3 C88.4,13.5 88.1,13.5 87.9,13.5 C87.7,13.5 87.5,13.4 87.3,13.3 C87.2,13.2 87.1,13 87.1,12.7 C87.1,12 87.7,11.7 89,11.7 Z" id="Shape"></path>
                <path d="M95.5,6.7 L95.5,9.7 L95.5,9.7 C95.2,9.2 94.7,9 94,9 C93.4,9 92.8,9.2 92.4,9.7 C92,10.2 91.7,10.9 91.7,11.7 C91.7,12.5 91.9,13.1 92.3,13.6 C92.7,14.1 93.2,14.3 93.9,14.3 C94.7,14.3 95.2,14 95.6,13.3 L95.6,13.3 L95.7,14.1 L96.7,14.1 C96.7,13.7 96.7,13.2 96.7,12.7 L96.7,6.5 L95.5,6.5 L95.5,6.7 Z M95.5,12.1 C95.5,12.5 95.4,12.8 95.2,13 C95,13.3 94.7,13.4 94.3,13.4 C93.9,13.4 93.5,13.2 93.3,12.9 C93.1,12.6 92.9,12.2 92.9,11.7 C92.9,11.2 93,10.7 93.3,10.4 C93.5,10.1 93.9,9.9 94.3,9.9 C94.6,9.9 94.9,10 95.1,10.2 C95.3,10.4 95.5,10.6 95.5,10.9 C95.5,11 95.5,11.1 95.5,11.3 L95.5,12.1 Z" id="Shape"></path>
                <path d="M105.9,13.6 C106.4,13.1 106.6,12.4 106.6,11.6 C106.6,10.8 106.4,10.2 105.9,9.7 C105.4,9.2 104.8,8.9 104.1,8.9 C103.3,8.9 102.7,9.2 102.2,9.7 C101.7,10.2 101.5,10.9 101.5,11.7 C101.5,12.5 101.7,13.1 102.2,13.6 C102.7,14.1 103.3,14.4 104,14.4 C104.8,14.4 105.4,14.1 105.9,13.6 Z M103,12.9 C102.8,12.6 102.7,12.1 102.7,11.7 C102.7,11.2 102.8,10.8 103,10.4 C103.2,10 103.6,9.8 104.1,9.8 C104.5,9.8 104.9,10 105.1,10.4 C105.3,10.7 105.4,11.2 105.4,11.6 C105.4,12 105.3,12.5 105.1,12.8 C104.9,13.2 104.5,13.4 104.1,13.4 C103.6,13.6 103.2,13.4 103,12.9 Z" id="Shape"></path>
                <path d="M112.7,14.3 L112.7,11.2 C112.7,10.4 112.5,9.9 112.1,9.5 C111.8,9.2 111.4,9 110.9,9 C110.5,9 110.2,9.1 109.9,9.3 C109.6,9.5 109.4,9.7 109.3,9.9 L109.3,9.9 L109.2,9.1 L108.2,9.1 C108.2,9.6 108.2,10.1 108.2,10.6 L108.2,14.3 L109.4,14.3 L109.4,11.2 C109.4,10.9 109.5,10.6 109.7,10.3 C109.9,10 110.2,9.9 110.5,9.9 C111.2,9.9 111.5,10.4 111.5,11.3 L111.5,14.3 L112.7,14.3 Z" id="Path"></path>
                <path d="M118.1,8.1 L118.1,9.1 L117.3,9.1 L117.3,10 L118.1,10 L118.1,12.6 C118.1,13.3 118.2,13.7 118.5,14 C118.8,14.3 119.1,14.4 119.6,14.4 C120,14.4 120.3,14.4 120.5,14.3 L120.5,13.4 C120.4,13.4 120.2,13.5 120,13.5 C119.6,13.5 119.3,13.2 119.3,12.5 L119.3,10 L120.6,10 L120.6,9.1 L119.3,9.1 L119.3,7.8 L118.1,8.1 Z" id="Path"></path>
                <path d="M122.1,6.7 L122.1,14.3 L123.2,14.3 L123.2,11.2 C123.2,11 123.2,10.9 123.3,10.8 C123.5,10.3 123.9,10 124.4,10 C125.1,10 125.4,10.5 125.4,11.4 L125.4,14.3 L126.5,14.3 L126.5,11.2 C126.5,10.4 126.3,9.9 125.9,9.5 C125.6,9.2 125.2,9 124.7,9 C124,9 123.5,9.3 123.1,9.9 L123.1,9.9 L123.1,6.8 L122.1,6.8 L122.1,6.7 Z" id="Path"></path>
                <path d="M130.7,9 C129.9,9 129.3,9.3 128.9,9.8 C128.5,10.3 128.3,11 128.3,11.8 C128.3,12.6 128.5,13.2 129,13.7 C129.5,14.2 130.1,14.4 130.9,14.4 C131.6,14.4 132.1,14.3 132.6,14.1 L132.4,13.3 C132,13.5 131.5,13.5 131,13.5 C130.5,13.5 130.2,13.4 129.9,13.1 C129.6,12.8 129.4,12.4 129.4,11.9 L132.8,11.9 C132.8,11.8 132.8,11.6 132.8,11.4 C132.8,10.8 132.6,10.2 132.3,9.8 C132,9.3 131.4,9 130.7,9 Z M129.3,11.1 C129.3,10.8 129.5,10.5 129.6,10.2 C129.8,9.9 130.1,9.7 130.5,9.7 C130.9,9.7 131.2,9.9 131.4,10.2 C131.6,10.4 131.6,10.7 131.6,11.1 L129.3,11.1 Z" id="Shape"></path>
            </g>
        </g>
    </g>
</svg>