<?xml version="1.0" encoding="UTF-8"?>
<svg width="148px" height="44px" viewBox="0 0 148 44" version="1.1" xmlns="http://www.w3.org/2000/svg" xmlns:xlink="http://www.w3.org/1999/xlink">
    <!-- Generator: Sketch 63.1 (92452) - https://sketch.com -->
    <title>download-google</title>
    <desc>Created with Sketch.</desc>
    <g id="Page-1" stroke="none" stroke-width="1" fill="none" fill-rule="evenodd">
        <g id="iPhone-11-Pro" transform="translate(-20.000000, -341.000000)" fill="#15202b" fill-rule="nonzero">
            <g id="download-google" transform="translate(20.000000, 341.000000)">
                <path d="M143.3,43.5 L4.8,43.5 C2.2,43.5 0.1,41.4 0.1,38.8 L0.1,5.2 C0.1,2.6 2.2,0.5 4.8,0.5 L143.3,0.5 C145.9,0.5 148,2.6 148,5.2 L148,38.8 C148,41.4 145.9,43.5 143.3,43.5 Z M4.7,1.5 C2.6,1.5 1,3.2 1,5.2 L1,38.8 C1,40.8 2.7,42.5 4.7,42.5 L143.2,42.5 C145.3,42.5 146.9,40.8 146.9,38.8 L146.9,5.2 C146.9,3.1 145.2,1.5 143.2,1.5 L4.7,1.5 Z" id="Shape"></path>
                <path d="M96.6,31.5 C95.9,31.8 95.2,32.1 94.3,32.1 C92.4,32.1 90.7,30.6 90.2,28.1 L91.7,28 L96.4,26.1 C96.3,25.6 96,24.8 95,24.1 C94.4,23.7 93.7,23.5 92.9,23.5 C90.8,23.5 88.3,25 88.3,28.1 C88.3,29.6 88.9,31.3 90.4,32.3 C91.4,33 92.4,33.1 93.1,33.1 C93.7,33.1 94.4,33 95.1,32.7 C95.3,32.6 95.5,32.5 95.8,32.3 L96.6,31.5 C96.8,31.4 96.6,31.5 96.6,31.5 Z M90.1,27 C90.1,24.8 91.6,24.2 92.4,24.2 C93.5,24.2 94.4,25.1 94.4,25.9 C94.4,26.2 94.2,26.3 93.8,26.4 L90.1,28 C90.1,27.7 90.1,27.3 90.1,27 Z" id="Shape"></path>
                <path d="M86.8,31.4 L86.8,20.1 C86.9,19.4 87.1,19.2 87.7,18.8 L84.8,18.8 L83.3,19.5 L84.9,19.5 L84.9,31.4 L84.9,31.8 C84.9,32.2 84.8,32.3 84.4,32.9 L87.9,32.9 L88.6,32.5 C88.3,32.5 87.9,32.4 87.6,32.4 C86.9,32.3 86.8,32.1 86.8,31.4 Z" id="Path"></path>
                <path d="M83.8,23.8 L79.7,23.8 C78.6,23.8 77.2,24 76.1,24.9 C75.2,25.6 74.8,26.7 74.8,27.6 C74.8,29.2 76,30.7 78.1,30.7 C78.3,30.7 78.5,30.7 78.7,30.7 C78.6,30.9 78.5,31.1 78.5,31.5 C78.5,32.1 78.8,32.5 79.1,32.9 C78.2,33 76.5,33.1 75.3,33.8 C74.1,34.5 73.7,35.5 73.7,36.2 C73.7,37.7 75.1,39.1 78,39.1 C81.5,39.1 83.3,37.2 83.3,35.3 C83.3,33.9 82.5,33.2 81.6,32.5 L80.9,31.9 C80.7,31.7 80.4,31.5 80.4,31 C80.4,30.6 80.7,30.3 81,30 C81.8,29.3 82.7,28.6 82.7,27.2 C82.7,25.7 81.7,24.9 81.3,24.5 L82.5,24.5 L83.8,23.8 Z M82,36 C82,37.2 81,38.2 79,38.2 C76.8,38.2 75.5,37.2 75.5,35.8 C75.5,34.4 76.8,33.9 77.2,33.7 C78,33.4 79.1,33.4 79.3,33.4 C79.5,33.4 79.6,33.4 79.8,33.4 C81.4,34.5 82,35 82,36 Z M80.4,29.6 C80.1,29.9 79.5,30.2 79,30.2 C77.3,30.2 76.5,28 76.5,26.7 C76.5,26.2 76.6,25.6 76.9,25.2 C77.2,24.8 77.8,24.5 78.3,24.5 C80,24.5 80.8,26.7 80.8,28.2 C80.9,28.5 80.9,29.2 80.4,29.6 Z" id="Shape"></path>
                <path d="M69.1,23.6 C66,23.6 63.9,25.8 63.9,28.4 C63.9,30.6 65.6,33.1 68.8,33.1 C72.1,33.1 73.9,30.6 73.9,28.3 C73.9,25.9 72.1,23.6 69.1,23.6 Z M71.3,31.5 C70.8,32.1 70,32.5 69.2,32.5 C66.8,32.5 65.8,29.3 65.8,27.3 C65.8,26.4 65.9,25.6 66.7,24.9 C67.2,24.5 67.9,24.2 68.5,24.2 C71,24.2 71.8,27.5 71.8,29.3 C71.9,30.1 71.8,30.9 71.3,31.5 Z" id="Shape"></path>
                <path d="M58.4,23.6 C55.3,23.6 53.2,25.8 53.2,28.4 C53.2,30.6 54.9,33.1 58.1,33.1 C61.4,33.1 63.2,30.6 63.2,28.3 C63.2,25.9 61.4,23.6 58.4,23.6 Z M60.6,31.5 C60.1,32.1 59.3,32.5 58.5,32.5 C56.1,32.5 55.1,29.3 55.1,27.3 C55.1,26.4 55.2,25.6 56,24.9 C56.5,24.5 57.1,24.2 57.8,24.2 C60.3,24.2 61.1,27.5 61.1,29.3 C61.2,30.1 61.1,30.9 60.6,31.5 Z" id="Shape"></path>
                <path d="M47.1,29.3 L49.9,29.1 L49.9,32.1 C49.3,32.3 48.7,32.6 47.5,32.6 C43.4,32.6 40.8,29.3 40.8,25.8 C40.8,22.5 43,20.3 46,20.3 C48.2,20.3 49.4,21.4 50,22.1 L49.5,22.8 L50.2,22.7 L51.8,21.2 C51.4,20.9 50.7,20.4 49.3,20 C48.4,19.8 47.4,19.6 46.4,19.6 C41.6,19.6 38.8,23 38.8,26.6 C38.8,29.6 40.8,33.4 46,33.4 C47,33.4 48,33.2 49.1,33.1 L51.8,32.5 L51.8,32.5 L51.8,30.2 C51.8,30 51.8,29.5 51.8,29.3 C51.8,29.2 51.9,29.1 52,29 L52.5,28.5 L48.5,28.5 L47.1,29.3 Z" id="Path"></path>
                <path d="M105.7,23.5 C104.3,23.5 103.1,24.3 102.4,25.2 L102.4,23.7 L101.4,23.7 L101.4,36.6 L102.4,36.6 L102.4,31.5 C103.2,32.6 104.4,33.2 105.7,33.2 C108.2,33.2 109.9,31.3 109.9,28.3 C110,25.4 108.3,23.5 105.7,23.5 Z M105.6,32.4 C104.3,32.4 103,31.3 102.5,30.4 L102.5,26.3 C103,25.4 104.3,24.4 105.6,24.4 C107.7,24.4 108.9,26.1 108.9,28.4 C108.9,30.7 107.7,32.4 105.6,32.4 Z" id="Shape"></path>
                <rect id="Rectangle" x="111.4" y="20.2" width="1" height="12.9"></rect>
                <path d="M127.4,31.9 L124,23.7 L122.9,23.7 L126.9,33.1 L126.2,34.8 C125.8,35.7 125.4,35.9 124.8,35.9 C124.6,35.9 124.2,35.8 124,35.7 L123.8,36.6 C124.1,36.7 124.5,36.7 124.8,36.7 C125.9,36.7 126.7,36.1 127.2,35 L132.1,23.6 L130.9,23.6 L127.4,31.9 Z" id="Path"></path>
                <path d="M121.7,31.2 L121.7,26.6 C121.7,25.6 121.4,24.9 120.7,24.3 C120,23.8 119.1,23.5 118,23.5 C116.9,23.5 116,23.8 115.3,24.3 C114.6,24.8 114.3,25.5 114.3,26.2 L114.3,26.3 L115.3,26.3 C115.3,25.8 115.5,25.3 116,25 C116.5,24.7 117.1,24.5 117.9,24.5 C118.7,24.5 119.4,24.7 119.8,25.1 C120.3,25.5 120.5,26 120.5,26.7 L120.5,27.9 L118.1,27.9 C116.8,27.9 115.8,28.2 115,28.7 C114.2,29.2 113.8,29.9 113.8,30.7 C113.8,31.5 114.1,32.2 114.6,32.7 C115.1,33.2 115.9,33.4 116.9,33.4 C117.7,33.4 118.3,33.2 119,32.9 C119.6,32.6 120.1,32.1 120.5,31.6 C120.5,31.8 120.5,32.1 120.5,32.3 C120.5,32.5 120.6,32.8 120.7,33.1 L120.7,33.1 L121.9,33.1 C121.8,32.8 121.7,32.5 121.7,32.2 C121.8,31.9 121.7,31.5 121.7,31.2 Z M120.6,30.3 C120.4,30.9 119.9,31.4 119.3,31.8 C118.7,32.2 118,32.4 117.2,32.4 C116.5,32.4 116,32.2 115.6,31.9 C115.2,31.6 115,31.1 115,30.6 C115,30 115.3,29.5 115.9,29.1 C116.5,28.7 117.2,28.5 118.2,28.5 L120.6,28.5 L120.6,30.3 L120.6,30.3 Z" id="Shape"></path>
                <path d="M41.8,10.3 L43.7,10.3 L43.7,11.3 C43.4,11.6 42.8,11.9 42.2,11.9 C40.9,11.9 40,10.9 40,9.6 C40,8.3 40.9,7.3 42.2,7.3 C42.9,7.3 43.5,7.7 43.9,8.1 L44.8,7.6 C44.3,6.9 43.5,6.3 42.2,6.3 C40.3,6.3 38.9,7.6 38.9,9.6 C38.9,11.6 40.4,12.9 42.2,12.9 C43.3,12.9 44.2,12.4 44.8,11.7 L44.8,9.3 L41.8,9.3 L41.8,10.3 L41.8,10.3 Z" id="Path"></path>
                <polygon id="Path" points="46.2 12.7 50.6 12.7 50.6 11.8 47.3 11.8 47.3 10 50.5 10 50.5 9 47.3 9 47.3 7.4 50.6 7.4 50.6 6.4 46.2 6.4"></polygon>
                <polygon id="Path" points="51.8 7.4 53.7 7.4 53.7 12.7 54.8 12.7 54.8 7.4 56.7 7.4 56.7 6.4 51.8 6.4"></polygon>
                <rect id="Rectangle" x="60.6" y="6.4" width="1.1" height="6.3"></rect>
                <polygon id="Path" points="62.9 7.4 64.8 7.4 64.8 12.7 65.9 12.7 65.9 7.4 67.9 7.4 67.9 6.4 62.9 6.4"></polygon>
                <path d="M74.7,6.3 C72.8,6.3 71.4,7.7 71.4,9.6 C71.4,11.5 72.7,12.9 74.7,12.9 C76.6,12.9 78,11.5 78,9.6 C78,7.7 76.6,6.3 74.7,6.3 Z M74.7,11.9 C73.4,11.9 72.6,10.9 72.6,9.6 C72.6,8.3 73.4,7.3 74.7,7.3 C76,7.3 76.8,8.3 76.8,9.6 C76.8,10.9 76,11.9 74.7,11.9 Z" id="Shape"></path>
                <polygon id="Path" points="83.7 10.8 80.4 6.4 79.3 6.4 79.3 12.7 80.4 12.7 80.4 8.2 83.7 12.7 84.8 12.7 84.8 6.4 83.7 6.4"></polygon>
                <g id="Group" transform="translate(14.000000, 16.000000)">
                    <polygon id="Path" points="13 14.9 10.3 11.8 2 21.1"></polygon>
                    <polygon id="Path" points="2.2 1.4 10.3 10.6 13.1 7.6"></polygon>
                    <path d="M18.1,10.4 L13.8,8 L10.8,11.3 L13.6,14.5 L18,12 C18.9,11.6 18.9,10.8 18.1,10.4 Z" id="Path"></path>
                    <path d="M0.1,1.9 L0.1,20.4 C0.1,21 0.3,21.3 0.7,21.4 L9.8,11.2 L0.7,0.9 C0.3,1.1 0.1,1.4 0.1,1.9 Z" id="Path"></path>
                </g>
            </g>
        </g>
    </g>
</svg>